<?xml version="1.0" encoding="utf-8"?>
<!-- Generator: Adobe Illustrator 16.0.0, SVG Export Plug-In . SVG Version: 6.00 Build 0)  -->
<!DOCTYPE svg PUBLIC "-//W3C//DTD SVG 1.1//EN" "http://www.w3.org/Graphics/SVG/1.1/DTD/svg11.dtd">
<svg version="1.1" id="Layer_1" xmlns="http://www.w3.org/2000/svg" xmlns:xlink="http://www.w3.org/1999/xlink" x="0px" y="0px"
	 width="90px" height="90px" viewBox="0 0 90 90" enable-background="new 0 0 90 90" xml:space="preserve">
<g>
	<g>
		<g>
			<path fill="#495056" d="M44.932,86.004c-22.056,0-40-17.944-40-40c0-22.056,17.944-40,40-40c22.056,0,40,17.944,40,40
				C84.932,68.06,66.987,86.004,44.932,86.004z"/>
			<defs>
				<filter id="Adobe_OpacityMaskFilter" filterUnits="userSpaceOnUse" x="4.932" y="6.004" width="80" height="80">
					
						<feColorMatrix  type="matrix" values="-1 0 0 0 1  0 -1 0 0 1  0 0 -1 0 1  0 0 0 1 0" color-interpolation-filters="sRGB" result="source"/>
				</filter>
			</defs>
			<mask maskUnits="userSpaceOnUse" x="4.932" y="6.004" width="80" height="80" id="SVGID_1_">
				<g filter="url(#Adobe_OpacityMaskFilter)">
					
						<image overflow="visible" width="350" height="350" xlink:href="2D0D95CDE675765B.jpg"  transform="matrix(0.24 0 0 0.24 2.9316 4.0039)">
					</image>
				</g>
			</mask>
			<path mask="url(#SVGID_1_)" fill="#495056" d="M44.932,86.004c-22.056,0-40-17.944-40-40c0-22.056,17.944-40,40-40
				c22.056,0,40,17.944,40,40C84.932,68.06,66.987,86.004,44.932,86.004z"/>
		</g>
		<g>
			<path fill="#323232" d="M44.932,85.004c-22.056,0-40-17.944-40-40c0-22.056,17.944-40,40-40c22.056,0,40,17.944,40,40
				C84.932,67.06,66.987,85.004,44.932,85.004z"/>
			<defs>
				<filter id="Adobe_OpacityMaskFilter_1_" filterUnits="userSpaceOnUse" x="4.932" y="5.004" width="80" height="80">
					
						<feColorMatrix  type="matrix" values="-1 0 0 0 1  0 -1 0 0 1  0 0 -1 0 1  0 0 0 1 0" color-interpolation-filters="sRGB" result="source"/>
				</filter>
			</defs>
			<mask maskUnits="userSpaceOnUse" x="4.932" y="5.004" width="80" height="80" id="SVGID_2_">
				<g filter="url(#Adobe_OpacityMaskFilter_1_)">
					
						<image overflow="visible" width="350" height="350" xlink:href="2D0D95CDE6757659.jpg"  transform="matrix(0.24 0 0 0.24 2.9316 3.0039)">
					</image>
				</g>
			</mask>
			<path mask="url(#SVGID_2_)" d="M44.932,85.004c-22.056,0-40-17.944-40-40c0-22.056,17.944-40,40-40c22.056,0,40,17.944,40,40
				C84.932,67.06,66.987,85.004,44.932,85.004z"/>
		</g>
	</g>
	<path fill="#24282B" d="M44.932,78.504c-18.472,0-33.5-15.028-33.5-33.5c0-18.472,15.028-33.5,33.5-33.5
		c18.472,0,33.5,15.028,33.5,33.5C78.432,63.476,63.403,78.504,44.932,78.504z"/>
	<circle fill="#6D6E71" cx="44.932" cy="46.504" r="30"/>
	<linearGradient id="SVGID_3_" gradientUnits="userSpaceOnUse" x1="14.9316" y1="48.0039" x2="74.9316" y2="48.0039">
		<stop  offset="0" style="stop-color:#24282B"/>
		<stop  offset="1" style="stop-color:#495056"/>
	</linearGradient>
	<circle fill="url(#SVGID_3_)" cx="44.932" cy="48.004" r="30"/>
	<path fill="#FBB040" d="M44.932,15.004c16.568,0,30,13.432,30,30s-13.432,30-30,30c-16.569,0-30-13.432-30-30
		S28.363,15.004,44.932,15.004 M44.932,8.004c-20.402,0-37,16.598-37,37c0,20.402,16.598,37,37,37c20.402,0,37-16.598,37-37
		C81.932,24.602,65.334,8.004,44.932,8.004L44.932,8.004z"/>
	<g opacity="0.07">
		
			<image overflow="visible" width="550" height="550" xlink:href="2D0D95CDE675765F.png"  transform="matrix(0.24 0 0 0.24 -21.0684 -17.9961)">
		</image>
	</g>
	<g>
		<path fill="#FFDE17" d="M44.932,15.004c16.568,0,30,13.432,30,30s-13.432,30-30,30c-16.569,0-30-13.432-30-30
			S28.363,15.004,44.932,15.004 M44.932,9.004c-19.851,0-36,16.149-36,36s16.149,36,36,36s36-16.149,36-36
			S64.782,9.004,44.932,9.004L44.932,9.004z"/>
		<defs>
			<filter id="Adobe_OpacityMaskFilter_2_" filterUnits="userSpaceOnUse" x="8.932" y="9.004" width="72" height="72">
				<feFlood  style="flood-color:white;flood-opacity:1" result="back"/>
				<feBlend  in="SourceGraphic" in2="back" mode="normal"/>
			</filter>
		</defs>
		<mask maskUnits="userSpaceOnUse" x="8.932" y="9.004" width="72" height="72" id="SVGID_4_">
			<g filter="url(#Adobe_OpacityMaskFilter_2_)">
				
					<image overflow="visible" width="317" height="317" xlink:href="2D0D95CDE6757658.jpg"  transform="matrix(0.24 0 0 0.24 6.9316 7.0039)">
				</image>
			</g>
		</mask>
		<path mask="url(#SVGID_4_)" fill="#FFFFFF" d="M44.932,15.004c16.568,0,30,13.432,30,30s-13.432,30-30,30
			c-16.569,0-30-13.432-30-30S28.363,15.004,44.932,15.004 M44.932,9.004c-19.851,0-36,16.149-36,36s16.149,36,36,36
			s36-16.149,36-36S64.782,9.004,44.932,9.004L44.932,9.004z"/>
	</g>
	<path fill="none" stroke="#F7F0B0" stroke-width="3" stroke-miterlimit="10" d="M44.932,78.004c-18.196,0-33-14.804-33-33
		s14.804-33,33-33s33,14.804,33,33S63.128,78.004,44.932,78.004z"/>
	<path fill="none" stroke="#FFFFFF" stroke-width="1.5" stroke-miterlimit="10" d="M44.932,78.004c-18.196,0-33-14.804-33-33
		s14.804-33,33-33s33,14.804,33,33S63.128,78.004,44.932,78.004z"/>
</g>
<g>
	<polygon fill="#ECEADE" points="38.736,31.567 62.139,45.055 38.717,58.578 	"/>
	<path fill="#FBAF40" d="M40.234,34.162l18.902,10.895L40.219,55.979L40.234,34.162 M37.238,28.972l-0.004,5.188l-0.016,21.817
		l-0.004,5.2l4.504-2.601l18.918-10.922l4.504-2.601l-4.506-2.597L41.732,31.562L37.238,28.972L37.238,28.972z"/>
	<path fill="#FEDD10" d="M40.234,34.162l18.902,10.895L40.219,55.979L40.234,34.162 M38.237,30.702l-0.002,3.458l-0.016,21.817
		l-0.002,3.467l3.002-1.733l18.918-10.923l3.003-1.733l-3.004-1.731L41.233,32.429L38.237,30.702L38.237,30.702z"/>
	<path fill="#F6EFAE" d="M40.234,34.162l18.902,10.895L40.219,55.979L40.234,34.162 M39.236,32.432l-0.001,1.729l-0.016,21.816
		l-0.001,1.733l1.501-0.866l18.918-10.922l1.501-0.867l-1.502-0.865L40.734,33.295L39.236,32.432L39.236,32.432z"/>
	<path fill="#F2EBC1" d="M40.234,34.162l18.902,10.895L40.219,55.979L40.234,34.162 M39.485,32.864l-0.001,1.297l-0.016,21.816
		l-0.001,1.301l1.126-0.65l18.918-10.922l1.126-0.65l-1.126-0.649L40.609,33.512L39.485,32.864L39.485,32.864z"/>
</g>
</svg>
