<?xml version="1.0" encoding="utf-8"?>
<!-- Generator: Adobe Illustrator 16.0.0, SVG Export Plug-In . SVG Version: 6.00 Build 0)  -->
<!DOCTYPE svg PUBLIC "-//W3C//DTD SVG 1.1//EN" "http://www.w3.org/Graphics/SVG/1.1/DTD/svg11.dtd">
<svg version="1.1" id="Layer_1" xmlns="http://www.w3.org/2000/svg" xmlns:xlink="http://www.w3.org/1999/xlink" x="0px" y="0px"
	 width="90px" height="90px" viewBox="0 0 90 90" enable-background="new 0 0 90 90" xml:space="preserve">
<g>
	<g>
		<g>
			<path fill="#495056" d="M44.932,86.004c-22.056,0-40-17.944-40-40c0-22.056,17.944-40,40-40c22.056,0,40,17.944,40,40
				C84.932,68.06,66.987,86.004,44.932,86.004z"/>
			<defs>
				<filter id="Adobe_OpacityMaskFilter" filterUnits="userSpaceOnUse" x="4.932" y="6.004" width="80" height="80">
					
						<feColorMatrix  type="matrix" values="-1 0 0 0 1  0 -1 0 0 1  0 0 -1 0 1  0 0 0 1 0" color-interpolation-filters="sRGB" result="source"/>
				</filter>
			</defs>
			<mask maskUnits="userSpaceOnUse" x="4.932" y="6.004" width="80" height="80" id="SVGID_1_">
				<g filter="url(#Adobe_OpacityMaskFilter)">
					
						<image overflow="visible" width="350" height="350" xlink:href="10B9614B2C065E7D.jpg"  transform="matrix(0.24 0 0 0.24 2.9316 4.0039)">
					</image>
				</g>
			</mask>
			<path mask="url(#SVGID_1_)" fill="#495056" d="M44.932,86.004c-22.056,0-40-17.944-40-40c0-22.056,17.944-40,40-40
				c22.056,0,40,17.944,40,40C84.932,68.06,66.987,86.004,44.932,86.004z"/>
		</g>
		<g>
			<path fill="#323232" d="M44.932,85.004c-22.056,0-40-17.944-40-40c0-22.056,17.944-40,40-40c22.056,0,40,17.944,40,40
				C84.932,67.06,66.987,85.004,44.932,85.004z"/>
			<defs>
				<filter id="Adobe_OpacityMaskFilter_1_" filterUnits="userSpaceOnUse" x="4.932" y="5.004" width="80" height="80">
					
						<feColorMatrix  type="matrix" values="-1 0 0 0 1  0 -1 0 0 1  0 0 -1 0 1  0 0 0 1 0" color-interpolation-filters="sRGB" result="source"/>
				</filter>
			</defs>
			<mask maskUnits="userSpaceOnUse" x="4.932" y="5.004" width="80" height="80" id="SVGID_2_">
				<g filter="url(#Adobe_OpacityMaskFilter_1_)">
					
						<image overflow="visible" width="350" height="350" xlink:href="10B9614B2C065E83.jpg"  transform="matrix(0.24 0 0 0.24 2.9316 3.0039)">
					</image>
				</g>
			</mask>
			<path mask="url(#SVGID_2_)" d="M44.932,85.004c-22.056,0-40-17.944-40-40c0-22.056,17.944-40,40-40c22.056,0,40,17.944,40,40
				C84.932,67.06,66.987,85.004,44.932,85.004z"/>
		</g>
	</g>
	<path fill="#24282B" d="M44.932,78.504c-18.472,0-33.5-15.028-33.5-33.5c0-18.472,15.028-33.5,33.5-33.5
		c18.472,0,33.5,15.028,33.5,33.5C78.432,63.476,63.403,78.504,44.932,78.504z"/>
	<circle fill="#6D6E71" cx="44.932" cy="46.504" r="30"/>
	<linearGradient id="SVGID_3_" gradientUnits="userSpaceOnUse" x1="14.9316" y1="48.0039" x2="74.9316" y2="48.0039">
		<stop  offset="0" style="stop-color:#24282B"/>
		<stop  offset="1" style="stop-color:#495056"/>
	</linearGradient>
	<circle fill="url(#SVGID_3_)" cx="44.932" cy="48.004" r="30"/>
	<path fill="#FBB040" d="M44.932,15.004c16.568,0,30,13.432,30,30s-13.432,30-30,30c-16.569,0-30-13.432-30-30
		S28.363,15.004,44.932,15.004 M44.932,8.004c-20.402,0-37,16.598-37,37c0,20.402,16.598,37,37,37c20.402,0,37-16.598,37-37
		C81.932,24.602,65.334,8.004,44.932,8.004L44.932,8.004z"/>
	<g opacity="0.07">
		
			<image overflow="visible" width="550" height="550" xlink:href="10B9614B2C065E85.png"  transform="matrix(0.24 0 0 0.24 -21.0684 -17.9961)">
		</image>
	</g>
	<g>
		<path fill="#FFDE17" d="M44.932,15.004c16.568,0,30,13.432,30,30s-13.432,30-30,30c-16.569,0-30-13.432-30-30
			S28.363,15.004,44.932,15.004 M44.932,9.004c-19.851,0-36,16.149-36,36s16.149,36,36,36s36-16.149,36-36
			S64.782,9.004,44.932,9.004L44.932,9.004z"/>
		<defs>
			<filter id="Adobe_OpacityMaskFilter_2_" filterUnits="userSpaceOnUse" x="8.932" y="9.004" width="72" height="72">
				<feFlood  style="flood-color:white;flood-opacity:1" result="back"/>
				<feBlend  in="SourceGraphic" in2="back" mode="normal"/>
			</filter>
		</defs>
		<mask maskUnits="userSpaceOnUse" x="8.932" y="9.004" width="72" height="72" id="SVGID_4_">
			<g filter="url(#Adobe_OpacityMaskFilter_2_)">
				
					<image overflow="visible" width="317" height="317" xlink:href="10B9614B2C065E87.jpg"  transform="matrix(0.24 0 0 0.24 6.9316 7.0039)">
				</image>
			</g>
		</mask>
		<path mask="url(#SVGID_4_)" fill="#FFFFFF" d="M44.932,15.004c16.568,0,30,13.432,30,30s-13.432,30-30,30
			c-16.569,0-30-13.432-30-30S28.363,15.004,44.932,15.004 M44.932,9.004c-19.851,0-36,16.149-36,36s16.149,36,36,36
			s36-16.149,36-36S64.782,9.004,44.932,9.004L44.932,9.004z"/>
	</g>
	<path fill="none" stroke="#F7F0B0" stroke-width="3" stroke-miterlimit="10" d="M44.932,78.004c-18.196,0-33-14.804-33-33
		s14.804-33,33-33s33,14.804,33,33S63.128,78.004,44.932,78.004z"/>
	<path fill="none" stroke="#FFFFFF" stroke-width="1.5" stroke-miterlimit="10" d="M44.932,78.004c-18.196,0-33-14.804-33-33
		s14.804-33,33-33s33,14.804,33,33S63.128,78.004,44.932,78.004z"/>
</g>
<g>
	<rect x="33.084" y="28.083" fill="#EBE9DD" width="9.5" height="33.5"/>
	<path fill="#FBAE40" d="M41.834,28.833v32h-8v-32H41.834 M43.334,27.333h-1.5h-8h-1.5v1.5v32v1.5h1.5h8h1.5v-1.5v-32V27.333
		L43.334,27.333z"/>
	<path fill="#FDDC08" d="M41.834,28.833v32h-8v-32H41.834 M42.834,27.833h-1h-8h-1v1v32v1h1h8h1v-1v-32V27.833L42.834,27.833z"/>
	<path fill="#F4EDAD" d="M41.834,28.833v32h-8v-32H41.834 M42.334,28.333h-0.5h-8h-0.5v0.5v32v0.5h0.5h8h0.5v-0.5v-32V28.333
		L42.334,28.333z"/>
	<path fill="#F1EAC0" d="M41.834,28.833v32h-8v-32H41.834 M42.134,28.533h-0.3h-8h-0.3v0.3v32v0.3h0.3h8h0.3v-0.3v-32V28.533
		L42.134,28.533z"/>
</g>
<g>
	<rect x="49.252" y="28.083" fill="#EBE9DD" width="9.5" height="33.5"/>
	<path fill="#FBAE40" d="M58.002,28.833v32h-8v-32H58.002 M59.502,27.333h-1.5h-8h-1.5v1.5v32v1.5h1.5h8h1.5v-1.5v-32V27.333
		L59.502,27.333z"/>
	<path fill="#FDDC08" d="M58.002,28.833v32h-8v-32H58.002 M59.002,27.833h-1h-8h-1v1v32v1h1h8h1v-1v-32V27.833L59.002,27.833z"/>
	<path fill="#F4EDAD" d="M58.002,28.833v32h-8v-32H58.002 M58.502,28.333h-0.5h-8h-0.5v0.5v32v0.5h0.5h8h0.5v-0.5v-32V28.333
		L58.502,28.333z"/>
	<path fill="#F1EAC0" d="M58.002,28.833v32h-8v-32H58.002 M58.301,28.533h-0.299h-8h-0.301v0.3v32v0.3h0.301h8h0.299v-0.3v-32
		V28.533L58.301,28.533z"/>
</g>
</svg>
