<?xml version="1.0" encoding="utf-8"?>
<!-- Generator: Adobe Illustrator 16.0.0, SVG Export Plug-In . SVG Version: 6.00 Build 0)  -->
<!DOCTYPE svg PUBLIC "-//W3C//DTD SVG 1.1//EN" "http://www.w3.org/Graphics/SVG/1.1/DTD/svg11.dtd">
<svg version="1.1" id="Layer_1" xmlns="http://www.w3.org/2000/svg" xmlns:xlink="http://www.w3.org/1999/xlink" x="0px" y="0px"
	 width="90px" height="90px" viewBox="0 0 90 90" enable-background="new 0 0 90 90" xml:space="preserve">
<g>
	<g>
		<g>
			<path fill="#495056" d="M44.922,85.761c-22.056,0-40-17.944-40-40c0-22.056,17.944-40,40-40c22.056,0,40,17.944,40,40
				C84.922,67.816,66.978,85.761,44.922,85.761z"/>
			<defs>
				<filter id="Adobe_OpacityMaskFilter" filterUnits="userSpaceOnUse" x="4.922" y="5.761" width="80" height="80">
					
						<feColorMatrix  type="matrix" values="-1 0 0 0 1  0 -1 0 0 1  0 0 -1 0 1  0 0 0 1 0" color-interpolation-filters="sRGB" result="source"/>
				</filter>
			</defs>
			<mask maskUnits="userSpaceOnUse" x="4.922" y="5.761" width="80" height="80" id="SVGID_1_">
				<g filter="url(#Adobe_OpacityMaskFilter)">
					
						<image overflow="visible" width="350" height="350" xlink:href="DEF26F8C296DEEA0.jpg"  transform="matrix(0.24 0 0 0.24 2.9219 3.7607)">
					</image>
				</g>
			</mask>
			<path mask="url(#SVGID_1_)" fill="#495056" d="M44.922,85.761c-22.056,0-40-17.944-40-40c0-22.056,17.944-40,40-40
				c22.056,0,40,17.944,40,40C84.922,67.816,66.978,85.761,44.922,85.761z"/>
		</g>
		<g>
			<path fill="#323232" d="M44.922,84.761c-22.056,0-40-17.944-40-40c0-22.056,17.944-40,40-40c22.056,0,40,17.944,40,40
				C84.922,66.816,66.978,84.761,44.922,84.761z"/>
			<defs>
				<filter id="Adobe_OpacityMaskFilter_1_" filterUnits="userSpaceOnUse" x="4.922" y="4.761" width="80" height="80">
					
						<feColorMatrix  type="matrix" values="-1 0 0 0 1  0 -1 0 0 1  0 0 -1 0 1  0 0 0 1 0" color-interpolation-filters="sRGB" result="source"/>
				</filter>
			</defs>
			<mask maskUnits="userSpaceOnUse" x="4.922" y="4.761" width="80" height="80" id="SVGID_2_">
				<g filter="url(#Adobe_OpacityMaskFilter_1_)">
					
						<image overflow="visible" width="350" height="350" xlink:href="DEF26F8C296DEEA1.jpg"  transform="matrix(0.24 0 0 0.24 2.9219 2.7607)">
					</image>
				</g>
			</mask>
			<path mask="url(#SVGID_2_)" d="M44.922,84.761c-22.056,0-40-17.944-40-40c0-22.056,17.944-40,40-40c22.056,0,40,17.944,40,40
				C84.922,66.816,66.978,84.761,44.922,84.761z"/>
		</g>
	</g>
	<path fill="#24282B" d="M44.922,78.261c-18.472,0-33.5-15.028-33.5-33.5c0-18.472,15.028-33.5,33.5-33.5
		c18.472,0,33.5,15.028,33.5,33.5C78.422,63.232,63.394,78.261,44.922,78.261z"/>
	<circle fill="#6D6E71" cx="44.922" cy="46.261" r="30"/>
	<linearGradient id="SVGID_3_" gradientUnits="userSpaceOnUse" x1="14.9219" y1="47.7607" x2="74.9219" y2="47.7607">
		<stop  offset="0" style="stop-color:#24282B"/>
		<stop  offset="1" style="stop-color:#495056"/>
	</linearGradient>
	<circle fill="url(#SVGID_3_)" cx="44.922" cy="47.761" r="30"/>
	<path fill="#27A9E1" d="M44.922,14.761c16.568,0,30,13.432,30,30s-13.432,30-30,30c-16.569,0-30-13.432-30-30
		S28.353,14.761,44.922,14.761 M44.922,7.761c-20.402,0-37,16.598-37,37c0,20.402,16.598,37,37,37c20.402,0,37-16.598,37-37
		C81.922,24.359,65.324,7.761,44.922,7.761L44.922,7.761z"/>
	<g opacity="0.07">
		
			<image overflow="visible" width="550" height="550" xlink:href="DEF26F8C296DEEA0.png"  transform="matrix(0.24 0 0 0.24 -21.0781 -18.2393)">
		</image>
	</g>
	<g>
		<path fill="#61CCF2" d="M44.922,14.761c16.568,0,30,13.432,30,30s-13.432,30-30,30c-16.569,0-30-13.432-30-30
			S28.353,14.761,44.922,14.761 M44.922,8.761c-19.851,0-36,16.149-36,36s16.149,36,36,36s36-16.149,36-36
			S64.772,8.761,44.922,8.761L44.922,8.761z"/>
		<defs>
			<filter id="Adobe_OpacityMaskFilter_2_" filterUnits="userSpaceOnUse" x="8.922" y="8.761" width="72" height="72">
				<feFlood  style="flood-color:white;flood-opacity:1" result="back"/>
				<feBlend  in="SourceGraphic" in2="back" mode="normal"/>
			</filter>
		</defs>
		<mask maskUnits="userSpaceOnUse" x="8.922" y="8.761" width="72" height="72" id="SVGID_4_">
			<g filter="url(#Adobe_OpacityMaskFilter_2_)">
				
					<image overflow="visible" width="317" height="317" xlink:href="DEF26F8C296DEEA2.jpg"  transform="matrix(0.24 0 0 0.24 6.9219 6.7607)">
				</image>
			</g>
		</mask>
		<path mask="url(#SVGID_4_)" fill="#FFFFFF" d="M44.922,14.761c16.568,0,30,13.432,30,30s-13.432,30-30,30
			c-16.569,0-30-13.432-30-30S28.353,14.761,44.922,14.761 M44.922,8.761c-19.851,0-36,16.149-36,36s16.149,36,36,36
			s36-16.149,36-36S64.772,8.761,44.922,8.761L44.922,8.761z"/>
	</g>
	<path fill="none" stroke="#CBEBF7" stroke-width="3" stroke-miterlimit="10" d="M44.922,77.761c-18.196,0-33-14.804-33-33
		s14.804-33,33-33s33,14.804,33,33S63.118,77.761,44.922,77.761z"/>
	<path fill="none" stroke="#FFFFFF" stroke-width="1.5" stroke-miterlimit="10" d="M44.922,77.761c-18.196,0-33-14.804-33-33
		s14.804-33,33-33s33,14.804,33,33S63.118,77.761,44.922,77.761z"/>
</g>
<g>
	<rect x="33.251" y="27.75" fill="#DBEAF5" width="9.5" height="33.5"/>
	<path fill="#26A8E0" d="M42.001,28.5v32h-8v-32H42.001 M43.501,27h-1.5h-8h-1.5v1.5v32V62h1.5h8h1.5v-1.5v-32V27L43.501,27z"/>
	<path fill="#62CCF0" d="M42.001,28.5v32h-8v-32H42.001 M43.001,27.5h-1h-8h-1v1v32v1h1h8h1v-1v-32V27.5L43.001,27.5z"/>
	<path fill="#ADDCED" d="M42.001,28.5v32h-8v-32H42.001 M42.501,28h-0.5h-8h-0.5v0.5v32V61h0.5h8h0.5v-0.5v-32V28L42.501,28z"/>
	<path fill="#A8DFF2" d="M42.001,28.5v32h-8v-32H42.001 M42.301,28.2h-0.3h-8h-0.3v0.3v32v0.3h0.3h8h0.3v-0.3v-32V28.2L42.301,28.2z
		"/>
</g>
<g>
	<rect x="49.418" y="27.75" fill="#DBEAF5" width="9.5" height="33.5"/>
	<path fill="#26A8E0" d="M58.168,28.5v32h-8v-32H58.168 M59.668,27h-1.5h-8h-1.5v1.5v32V62h1.5h8h1.5v-1.5v-32V27L59.668,27z"/>
	<path fill="#62CCF0" d="M58.168,28.5v32h-8v-32H58.168 M59.168,27.5h-1h-8h-1v1v32v1h1h8h1v-1v-32V27.5L59.168,27.5z"/>
	<path fill="#ADDCED" d="M58.168,28.5v32h-8v-32H58.168 M58.668,28h-0.5h-8h-0.5v0.5v32V61h0.5h8h0.5v-0.5v-32V28L58.668,28z"/>
	<path fill="#A8DFF2" d="M58.168,28.5v32h-8v-32H58.168 M58.468,28.2h-0.3h-8h-0.3v0.3v32v0.3h0.3h8h0.3v-0.3v-32V28.2L58.468,28.2z
		"/>
</g>
</svg>
