<?xml version="1.0" encoding="utf-8"?>
<!-- Generator: Adobe Illustrator 16.0.0, SVG Export Plug-In . SVG Version: 6.00 Build 0)  -->
<!DOCTYPE svg PUBLIC "-//W3C//DTD SVG 1.1//EN" "http://www.w3.org/Graphics/SVG/1.1/DTD/svg11.dtd">
<svg version="1.1" id="Layer_1" xmlns="http://www.w3.org/2000/svg" xmlns:xlink="http://www.w3.org/1999/xlink" x="0px" y="0px"
	 width="52.793px" height="59.448px" viewBox="0 0 52.793 59.448" enable-background="new 0 0 52.793 59.448" xml:space="preserve">
<g id="bXAmCJ_1_">
	<g>
		<path d="M52.793,4.153c0,4.005-0.621,8.448-0.904,12.098c-0.15,1.467-0.262,2.838-0.38,4.342
			c-0.942,11.974-1.704,23.96-2.746,35.924c-0.09,1.043-1.779,2.775-2.747,2.789c-12.771,0.189-25.546,0.18-38.319,0.025
			c-1-0.013-2.765-1.408-2.853-2.292C3.747,45.997,2.945,34.925,1.954,23.871C1.413,17.822,0.659,11.792,0,5.753
			c0-1.333,0-2.667,0-4C2.224,1.17,4.439,0.082,6.675,0.082C16.39,0.082,26.107,0,35.824,0c5.25,0,10.5,0,15.371,0
			C51.872,1.761,52.333,2.957,52.793,4.153z M27.29,24.484c0,5.165-1.4,1.3-7.884,4.815c5.133-2.797,9.822-5.35,15.349-8.361
			C29.389,23.884,32.257,26.644,27.29,24.484z"/>
	</g>
</g>
<linearGradient id="SVGID_1_" gradientUnits="userSpaceOnUse" x1="27.189" y1="52.3428" x2="27.189" y2="55.0188">
	<stop  offset="0" style="stop-color:#B0B0B0"/>
	<stop  offset="0.0507" style="stop-color:#969696"/>
	<stop  offset="0.1512" style="stop-color:#696969"/>
	<stop  offset="0.2523" style="stop-color:#434343"/>
	<stop  offset="0.3523" style="stop-color:#262626"/>
	<stop  offset="0.4511" style="stop-color:#111111"/>
	<stop  offset="0.5479" style="stop-color:#040404"/>
	<stop  offset="0.6406" style="stop-color:#000000"/>
</linearGradient>
<path fill-rule="evenodd" clip-rule="evenodd" fill="url(#SVGID_1_)" d="M47.389,53.617c0,0.792-0.642,1.434-1.434,1.434H8.423
	c-0.792,0-1.434-0.642-1.434-1.434l0,0c0-0.792,0.642-1.434,1.434-1.434h37.533C46.748,52.184,47.389,52.826,47.389,53.617
	L47.389,53.617z"/>
<linearGradient id="SVGID_2_" gradientUnits="userSpaceOnUse" x1="26.397" y1="3.4624" x2="26.397" y2="5.3651">
	<stop  offset="0.0817" style="stop-color:#A4A4A4"/>
	<stop  offset="0.1067" style="stop-color:#969696"/>
	<stop  offset="0.1978" style="stop-color:#696969"/>
	<stop  offset="0.2892" style="stop-color:#434343"/>
	<stop  offset="0.3798" style="stop-color:#262626"/>
	<stop  offset="0.4691" style="stop-color:#111111"/>
	<stop  offset="0.5567" style="stop-color:#040404"/>
	<stop  offset="0.6406" style="stop-color:#000000"/>
</linearGradient>
<path fill-rule="evenodd" clip-rule="evenodd" fill="url(#SVGID_2_)" d="M52.793,4.388c0,0.552-0.273,1-0.609,1H0.609
	C0.273,5.388,0,4.94,0,4.388l0,0C0,3.892,0,3.4,0,3.404l52.793-0.032C52.793,3.222,52.793,3.836,52.793,4.388L52.793,4.388z"/>
<path fill-rule="evenodd" clip-rule="evenodd" fill="#FFF200" d="M22.294,28.367c0-5.301,0-9.399,0-14.404
	c4.718,2.354,8.844,4.413,14.165,7.069C31.34,23.682,27.345,25.751,22.294,28.367z"/>
</svg>
