<?xml version="1.0" encoding="utf-8"?>
<!-- Generator: Adobe Illustrator 16.0.0, SVG Export Plug-In . SVG Version: 6.00 Build 0)  -->
<!DOCTYPE svg PUBLIC "-//W3C//DTD SVG 1.1//EN" "http://www.w3.org/Graphics/SVG/1.1/DTD/svg11.dtd">
<svg version="1.1" id="Layer_1" xmlns="http://www.w3.org/2000/svg" xmlns:xlink="http://www.w3.org/1999/xlink" x="0px" y="0px"
	 width="63.083px" height="80.031px" viewBox="0 0 63.083 80.031" enable-background="new 0 0 63.083 80.031" xml:space="preserve">
<g id="kALRAg_1_">
	<g>
		<path d="M1.063,0c20.333,0,40.667,0,61,0c0.352,1.433,1.008,2.865,1.01,4.298c0.031,23.615-0.026,47.229-0.045,70.843
			c-0.002,3.404-1.289,4.926-5.029,4.889c-17.293-0.169-34.59-0.145-51.885-0.029C1.886,80.03-0.042,78.929,0,74.134
			C0.201,51.353,0.016,28.569,0.056,5.786C0.06,3.857,0.712,1.929,1.063,0z M25.847,33.447c6.314-3.27,11.307-5.855,17.706-9.169
			c-5.72,2.972-2.905,7.499-8.803,4.556C34.75,35.09,34.25,29.167,25.847,33.447z"/>
		<path fill-rule="evenodd" clip-rule="evenodd" fill="#FFF200" d="M26.118,35.396c0-6.626,0-11.749,0-18.005
			c5.898,2.943,11.055,5.517,17.706,8.836C37.425,29.54,32.432,32.126,26.118,35.396z"/>
	</g>
</g>
<linearGradient id="SVGID_1_" gradientUnits="userSpaceOnUse" x1="31.7368" y1="67.9287" x2="31.7368" y2="71.2733">
	<stop  offset="0" style="stop-color:#CCCCCC"/>
	<stop  offset="0.0935" style="stop-color:#969696"/>
	<stop  offset="0.1871" style="stop-color:#696969"/>
	<stop  offset="0.2808" style="stop-color:#434343"/>
	<stop  offset="0.3735" style="stop-color:#262626"/>
	<stop  offset="0.465" style="stop-color:#111111"/>
	<stop  offset="0.5547" style="stop-color:#040404"/>
	<stop  offset="0.6406" style="stop-color:#000000"/>
</linearGradient>
<path fill-rule="evenodd" clip-rule="evenodd" fill="url(#SVGID_1_)" d="M56.987,69.521c0,0.989-0.802,1.792-1.792,1.792H8.279
	c-0.99,0-1.792-0.802-1.792-1.792l0,0c0-0.99,0.802-1.792,1.792-1.792h46.916C56.185,67.729,56.987,68.532,56.987,69.521
	L56.987,69.521z"/>
<linearGradient id="SVGID_2_" gradientUnits="userSpaceOnUse" x1="31.5415" y1="3.8276" x2="31.5415" y2="6.2061">
	<stop  offset="0.0817" style="stop-color:#A4A4A4"/>
	<stop  offset="0.1067" style="stop-color:#969696"/>
	<stop  offset="0.1978" style="stop-color:#696969"/>
	<stop  offset="0.2892" style="stop-color:#434343"/>
	<stop  offset="0.3798" style="stop-color:#262626"/>
	<stop  offset="0.4691" style="stop-color:#111111"/>
	<stop  offset="0.5567" style="stop-color:#040404"/>
	<stop  offset="0.6406" style="stop-color:#000000"/>
</linearGradient>
<path fill-rule="evenodd" clip-rule="evenodd" fill="url(#SVGID_2_)" d="M63.083,4.984c0,0.69-0.327,1.25-0.728,1.25H0.728
	C0.327,6.234,0,5.675,0,4.984l0,0c0-0.62,0-1.234,0-1.229l63.083-0.041C63.083,3.527,63.083,4.294,63.083,4.984L63.083,4.984z"/>
</svg>
