<?xml version="1.0" encoding="utf-8"?>
<!-- Generator: Adobe Illustrator 16.0.0, SVG Export Plug-In . SVG Version: 6.00 Build 0)  -->
<!DOCTYPE svg PUBLIC "-//W3C//DTD SVG 1.1//EN" "http://www.w3.org/Graphics/SVG/1.1/DTD/svg11.dtd">
<svg version="1.1" id="Layer_1" xmlns="http://www.w3.org/2000/svg" xmlns:xlink="http://www.w3.org/1999/xlink" x="0px" y="0px"
	 width="90px" height="90px" viewBox="0 0 90 90" enable-background="new 0 0 90 90" xml:space="preserve">
<g>
	<g>
		<g>
			<path fill="#495056" d="M45.088,85.594c-22.056,0-40-17.944-40-40c0-22.056,17.944-40,40-40c22.056,0,40,17.944,40,40
				C85.088,67.649,67.144,85.594,45.088,85.594z"/>
			<defs>
				<filter id="Adobe_OpacityMaskFilter" filterUnits="userSpaceOnUse" x="5.088" y="5.594" width="80" height="80">
					
						<feColorMatrix  type="matrix" values="-1 0 0 0 1  0 -1 0 0 1  0 0 -1 0 1  0 0 0 1 0" color-interpolation-filters="sRGB" result="source"/>
				</filter>
			</defs>
			<mask maskUnits="userSpaceOnUse" x="5.088" y="5.594" width="80" height="80" id="SVGID_1_">
				<g filter="url(#Adobe_OpacityMaskFilter)">
					
						<image overflow="visible" width="350" height="350" xlink:href="CA0FD1500564831C.jpg"  transform="matrix(0.24 0 0 0.24 3.0879 3.5938)">
					</image>
				</g>
			</mask>
			<path mask="url(#SVGID_1_)" fill="#495056" d="M45.088,85.594c-22.056,0-40-17.944-40-40c0-22.056,17.944-40,40-40
				c22.056,0,40,17.944,40,40C85.088,67.649,67.144,85.594,45.088,85.594z"/>
		</g>
		<g>
			<path fill="#323232" d="M45.088,84.594c-22.056,0-40-17.944-40-40c0-22.056,17.944-40,40-40c22.056,0,40,17.944,40,40
				C85.088,66.649,67.144,84.594,45.088,84.594z"/>
			<defs>
				<filter id="Adobe_OpacityMaskFilter_1_" filterUnits="userSpaceOnUse" x="5.088" y="4.594" width="80" height="80">
					
						<feColorMatrix  type="matrix" values="-1 0 0 0 1  0 -1 0 0 1  0 0 -1 0 1  0 0 0 1 0" color-interpolation-filters="sRGB" result="source"/>
				</filter>
			</defs>
			<mask maskUnits="userSpaceOnUse" x="5.088" y="4.594" width="80" height="80" id="SVGID_2_">
				<g filter="url(#Adobe_OpacityMaskFilter_1_)">
					
						<image overflow="visible" width="350" height="350" xlink:href="CA0FD1500564831D.jpg"  transform="matrix(0.24 0 0 0.24 3.0879 2.5938)">
					</image>
				</g>
			</mask>
			<path mask="url(#SVGID_2_)" d="M45.088,84.594c-22.056,0-40-17.944-40-40c0-22.056,17.944-40,40-40c22.056,0,40,17.944,40,40
				C85.088,66.649,67.144,84.594,45.088,84.594z"/>
		</g>
	</g>
	<path fill="#24282B" d="M45.088,78.094c-18.472,0-33.5-15.028-33.5-33.5c0-18.472,15.028-33.5,33.5-33.5
		c18.472,0,33.5,15.028,33.5,33.5C78.588,63.065,63.56,78.094,45.088,78.094z"/>
	<circle fill="#6D6E71" cx="45.088" cy="46.094" r="30"/>
	<linearGradient id="SVGID_3_" gradientUnits="userSpaceOnUse" x1="15.0879" y1="47.5938" x2="75.0879" y2="47.5938">
		<stop  offset="0" style="stop-color:#24282B"/>
		<stop  offset="1" style="stop-color:#495056"/>
	</linearGradient>
	<circle fill="url(#SVGID_3_)" cx="45.088" cy="47.594" r="30"/>
	<path fill="#27A9E1" d="M45.088,14.594c16.568,0,30,13.432,30,30s-13.432,30-30,30c-16.569,0-30-13.432-30-30
		S28.519,14.594,45.088,14.594 M45.088,7.594c-20.402,0-37,16.598-37,37c0,20.402,16.598,37,37,37c20.402,0,37-16.598,37-37
		C82.088,24.192,65.49,7.594,45.088,7.594L45.088,7.594z"/>
	<g opacity="0.07">
		
			<image overflow="visible" width="550" height="550" xlink:href="CA0FD1500564831C.png"  transform="matrix(0.24 0 0 0.24 -20.9121 -18.4062)">
		</image>
	</g>
	<g>
		<path fill="#61CCF2" d="M45.088,14.594c16.568,0,30,13.432,30,30s-13.432,30-30,30c-16.569,0-30-13.432-30-30
			S28.519,14.594,45.088,14.594 M45.088,8.594c-19.851,0-36,16.149-36,36s16.149,36,36,36s36-16.149,36-36
			S64.938,8.594,45.088,8.594L45.088,8.594z"/>
		<defs>
			<filter id="Adobe_OpacityMaskFilter_2_" filterUnits="userSpaceOnUse" x="9.088" y="8.594" width="72" height="72">
				<feFlood  style="flood-color:white;flood-opacity:1" result="back"/>
				<feBlend  in="SourceGraphic" in2="back" mode="normal"/>
			</filter>
		</defs>
		<mask maskUnits="userSpaceOnUse" x="9.088" y="8.594" width="72" height="72" id="SVGID_4_">
			<g filter="url(#Adobe_OpacityMaskFilter_2_)">
				
					<image overflow="visible" width="317" height="317" xlink:href="CA0FD15005648324.jpg"  transform="matrix(0.24 0 0 0.24 7.0879 6.5938)">
				</image>
			</g>
		</mask>
		<path mask="url(#SVGID_4_)" fill="#FFFFFF" d="M45.088,14.594c16.568,0,30,13.432,30,30s-13.432,30-30,30
			c-16.569,0-30-13.432-30-30S28.519,14.594,45.088,14.594 M45.088,8.594c-19.851,0-36,16.149-36,36s16.149,36,36,36
			s36-16.149,36-36S64.938,8.594,45.088,8.594L45.088,8.594z"/>
	</g>
	<path fill="none" stroke="#CBEBF7" stroke-width="3" stroke-miterlimit="10" d="M45.088,77.594c-18.196,0-33-14.804-33-33
		s14.804-33,33-33s33,14.804,33,33S63.284,77.594,45.088,77.594z"/>
	<path fill="none" stroke="#FFFFFF" stroke-width="1.5" stroke-miterlimit="10" d="M45.088,77.594c-18.196,0-33-14.804-33-33
		s14.804-33,33-33s33,14.804,33,33S63.284,77.594,45.088,77.594z"/>
</g>
<g>
	<polygon fill="#DCEBF6" points="38.903,30.824 62.306,44.312 38.884,57.834 	"/>
	<path fill="#27A9E1" d="M40.401,33.419l18.902,10.895L40.386,55.235L40.401,33.419 M37.405,28.229l-0.004,5.188l-0.016,21.816
		l-0.004,5.2l4.504-2.601l18.918-10.921l4.504-2.601l-4.506-2.597L41.899,30.82L37.405,28.229L37.405,28.229z"/>
	<path fill="#62CCF1" d="M40.401,33.419l18.902,10.895L40.386,55.235L40.401,33.419 M38.404,29.959l-0.002,3.458l-0.016,21.817
		l-0.002,3.467l3.002-1.733l18.918-10.923l3.003-1.733l-3.004-1.731L41.4,31.686L38.404,29.959L38.404,29.959z"/>
	<path fill="#ACDDEF" d="M40.401,33.419l18.902,10.895L40.386,55.235L40.401,33.419 M39.403,31.689l-0.001,1.729l-0.016,21.816
		l-0.001,1.733l1.501-0.866L59.804,45.18l1.501-0.867l-1.502-0.866L40.901,32.553L39.403,31.689L39.403,31.689z"/>
	<path fill="#A8DFF2" d="M40.401,33.419l18.902,10.895L40.386,55.235L40.401,33.419 M39.652,32.122l-0.001,1.297l-0.016,21.816
		l-0.001,1.301l1.126-0.65l18.918-10.922l1.126-0.65l-1.126-0.649L40.776,32.769L39.652,32.122L39.652,32.122z"/>
</g>
</svg>
