<?xml version="1.0" encoding="utf-8"?>
<!-- Generator: Adobe Illustrator 16.0.0, SVG Export Plug-In . SVG Version: 6.00 Build 0)  -->
<!DOCTYPE svg PUBLIC "-//W3C//DTD SVG 1.1//EN" "http://www.w3.org/Graphics/SVG/1.1/DTD/svg11.dtd">
<svg version="1.1" id="Layer_1" xmlns="http://www.w3.org/2000/svg" xmlns:xlink="http://www.w3.org/1999/xlink" x="0px" y="0px"
	 width="50.466px" height="64.024px" viewBox="6.308 8.003 50.466 64.024" enable-background="new 6.308 8.003 50.466 64.024"
	 xml:space="preserve">
<g id="kALRAg_1_">
	<g>
		<path d="M7.159,8.003c16.266,0,32.533,0,48.8,0c0.281,1.146,0.806,2.292,0.808,3.438c0.025,18.892-0.02,37.783-0.035,56.674
			c-0.002,2.724-1.031,3.941-4.023,3.911c-13.835-0.134-27.672-0.116-41.508-0.022c-3.382,0.022-4.925-0.857-4.891-4.693
			c0.161-18.225,0.013-36.453,0.045-54.679C6.356,11.088,6.878,9.546,7.159,8.003z M26.986,34.76
			c5.051-2.616,9.046-4.684,14.165-7.335c-4.709,2.378-1.242,0.895-6.043,3.228C35.108,35.658,31.642,32.336,26.986,34.76z"/>
	</g>
</g>
<linearGradient id="SVGID_1_" gradientUnits="userSpaceOnUse" x1="237.6411" y1="-226.0342" x2="237.6411" y2="-227.937" gradientTransform="matrix(1 0 0 -1 -206 -214.9688)">
	<stop  offset="0.0817" style="stop-color:#A4A4A4"/>
	<stop  offset="0.1068" style="stop-color:#969696"/>
	<stop  offset="0.1978" style="stop-color:#696969"/>
	<stop  offset="0.2892" style="stop-color:#434343"/>
	<stop  offset="0.3798" style="stop-color:#262626"/>
	<stop  offset="0.4691" style="stop-color:#111111"/>
	<stop  offset="0.5567" style="stop-color:#040404"/>
	<stop  offset="0.6406" style="stop-color:#000000"/>
</linearGradient>
<path fill="url(#SVGID_1_)" d="M56.774,11.99c0,0.552-0.26,1-0.58,1H7.088c-0.32,0-0.58-0.448-0.58-1l0,0c0-0.496,0-0.987,0-0.983
	l50.266-0.033C56.774,10.825,56.774,11.438,56.774,11.99L56.774,11.99z"/>
<path fill="#FFF200" d="M51.897,63.62c0,0.79-0.641,1.433-1.434,1.433H12.931c-0.792,0-1.434-0.641-1.434-1.433l0,0
	c0-0.792,0.642-1.435,1.434-1.435h37.532C51.256,62.186,51.897,62.828,51.897,63.62L51.897,63.62z"/>
<path fill="#FFF200" d="M33.432,25.394c0.097,1.332,0.197,2.157,0.271,3.332c2.513-1.337,5.395-2.669,7.934-4.1
	c0,3.783,0,7.294,0,11.095c-2.357-1.131-5.371-2.32-7.908-3.467c-0.1,1.073-0.138,1.935-0.266,3.019
	c-2.977-1.502-5.759-2.905-9.298-4.691C27.554,28.685,30.326,27.133,33.432,25.394z"/>
</svg>
