<?xml version="1.0" encoding="utf-8"?>
<!-- Generator: Adobe Illustrator 16.0.0, SVG Export Plug-In . SVG Version: 6.00 Build 0)  -->
<!DOCTYPE svg PUBLIC "-//W3C//DTD SVG 1.1//EN" "http://www.w3.org/Graphics/SVG/1.1/DTD/svg11.dtd">
<svg version="1.1" id="Layer_1" xmlns="http://www.w3.org/2000/svg" xmlns:xlink="http://www.w3.org/1999/xlink" x="0px" y="0px"
	 width="63.083px" height="80.031px" viewBox="0 0 63.083 80.031" enable-background="new 0 0 63.083 80.031" xml:space="preserve">
<g id="kALRAg_1_">
	<g>
		<path d="M1.063,0c20.333,0,40.667,0,61,0c0.352,1.433,1.008,2.865,1.01,4.298c0.031,23.615-0.025,47.229-0.045,70.843
			c-0.002,3.404-1.289,4.926-5.029,4.889c-17.293-0.168-34.589-0.145-51.885-0.028C1.886,80.029-0.042,78.93,0,74.134
			c0.201-22.78,0.016-45.565,0.056-68.348C0.06,3.857,0.712,1.929,1.063,0z M25.847,33.447c6.313-3.27,11.307-5.855,17.706-9.169
			C37.667,27.25,42,25.396,36,28.312C36,34.569,31.667,30.417,25.847,33.447z"/>
	</g>
</g>
<linearGradient id="SVGID_1_" gradientUnits="userSpaceOnUse" x1="237.6655" y1="-218.7964" x2="237.6655" y2="-221.1749" gradientTransform="matrix(1 0 0 -1 -206 -214.9688)">
	<stop  offset="0.0817" style="stop-color:#A4A4A4"/>
	<stop  offset="0.1068" style="stop-color:#969696"/>
	<stop  offset="0.1978" style="stop-color:#696969"/>
	<stop  offset="0.2892" style="stop-color:#434343"/>
	<stop  offset="0.3798" style="stop-color:#262626"/>
	<stop  offset="0.4691" style="stop-color:#111111"/>
	<stop  offset="0.5567" style="stop-color:#040404"/>
	<stop  offset="0.6406" style="stop-color:#000000"/>
</linearGradient>
<path fill="url(#SVGID_1_)" d="M63.083,4.984c0,0.69-0.324,1.25-0.725,1.25H0.975c-0.4,0-0.725-0.56-0.725-1.25l0,0
	c0-0.62,0-1.234,0-1.229l62.833-0.041C63.083,3.527,63.083,4.294,63.083,4.984L63.083,4.984z"/>
<path fill="#FFF200" d="M56.987,69.521c0,0.988-0.802,1.791-1.792,1.791H8.279c-0.99,0-1.792-0.802-1.792-1.791l0,0
	c0-0.99,0.802-1.793,1.792-1.793h46.916C56.185,67.729,56.987,68.532,56.987,69.521L56.987,69.521z"/>
<path fill="#FFF200" d="M33.905,21.739c0.121,1.665,0.246,2.696,0.34,4.165c3.141-1.672,6.742-3.336,9.917-5.125
	c0,4.728,0,9.117,0,13.868c-2.947-1.414-6.714-2.899-9.886-4.334c-0.125,1.341-0.172,2.419-0.332,3.773
	c-3.721-1.877-7.199-3.631-11.623-5.863C26.557,25.853,30.022,23.913,33.905,21.739z"/>
</svg>
