<?xml version="1.0" encoding="utf-8"?>
<!-- Generator: Adobe Illustrator 16.0.0, SVG Export Plug-In . SVG Version: 6.00 Build 0)  -->
<!DOCTYPE svg PUBLIC "-//W3C//DTD SVG 1.1//EN" "http://www.w3.org/Graphics/SVG/1.1/DTD/svg11.dtd">
<svg version="1.1" id="Layer_1" xmlns="http://www.w3.org/2000/svg" xmlns:xlink="http://www.w3.org/1999/xlink" x="0px" y="0px"
	 width="65.992px" height="74.31px" viewBox="0 0 65.992 74.31" enable-background="new 0 0 65.992 74.31" xml:space="preserve">
<g id="bXAmCJ_1_">
	<g>
		<path d="M65.992,5.191c0,5.006-0.775,10.56-1.129,15.123c-0.188,1.833-0.328,3.547-0.475,5.428
			c-1.178,14.967-2.13,29.95-3.432,44.904c-0.113,1.305-2.225,3.469-3.434,3.486c-15.964,0.236-31.933,0.225-47.898,0.031
			c-1.25-0.016-3.457-1.76-3.566-2.865c-1.374-13.803-2.376-27.643-3.614-41.46C1.766,22.277,0.823,14.74,0,7.191
			c0-1.666,0-3.333,0-4.999c2.78-0.729,5.549-2.091,8.344-2.091C20.487,0.102,32.634,0,44.78,0c6.562,0,13.125,0,19.214,0
			C64.84,2.201,65.416,3.696,65.992,5.191z M32.112,32.354c-8.375,4.75,0.125,0-7.855,4.269c6.417-3.496,12.278-6.688,19.186-10.451
			C36.737,29.979,39.737,28.229,32.112,32.354z"/>
	</g>
</g>
<linearGradient id="SVGID_1_" gradientUnits="userSpaceOnUse" x1="33.9868" y1="65.4287" x2="33.9868" y2="68.7733">
	<stop  offset="0" style="stop-color:#B0B0B0"/>
	<stop  offset="0.0507" style="stop-color:#969696"/>
	<stop  offset="0.1512" style="stop-color:#696969"/>
	<stop  offset="0.2523" style="stop-color:#434343"/>
	<stop  offset="0.3523" style="stop-color:#262626"/>
	<stop  offset="0.4511" style="stop-color:#111111"/>
	<stop  offset="0.5479" style="stop-color:#040404"/>
	<stop  offset="0.6406" style="stop-color:#000000"/>
</linearGradient>
<path fill-rule="evenodd" clip-rule="evenodd" fill="url(#SVGID_1_)" d="M59.237,67.021c0,0.989-0.802,1.792-1.792,1.792H10.529
	c-0.99,0-1.792-0.802-1.792-1.792l0,0c0-0.99,0.802-1.792,1.792-1.792h46.916C58.435,65.229,59.237,66.032,59.237,67.021
	L59.237,67.021z"/>
<linearGradient id="SVGID_2_" gradientUnits="userSpaceOnUse" x1="32.9961" y1="4.3276" x2="32.9961" y2="6.7061">
	<stop  offset="0.0817" style="stop-color:#A4A4A4"/>
	<stop  offset="0.1068" style="stop-color:#969696"/>
	<stop  offset="0.1978" style="stop-color:#696969"/>
	<stop  offset="0.2892" style="stop-color:#434343"/>
	<stop  offset="0.3798" style="stop-color:#262626"/>
	<stop  offset="0.4691" style="stop-color:#111111"/>
	<stop  offset="0.5567" style="stop-color:#040404"/>
	<stop  offset="0.6406" style="stop-color:#000000"/>
</linearGradient>
<path fill-rule="evenodd" clip-rule="evenodd" fill="url(#SVGID_2_)" d="M65.992,5.484c0,0.69-0.341,1.25-0.762,1.25H0.762
	C0.341,6.734,0,6.175,0,5.484l0,0c0-0.62,0-1.234,0-1.229l65.992-0.041C65.992,4.027,65.992,4.794,65.992,5.484L65.992,5.484z"/>
<path fill-rule="evenodd" clip-rule="evenodd" fill="#FFF200" d="M34.777,20.51c0.122,1.665,0.247,2.696,0.34,4.165
	c3.141-1.672,6.742-3.336,9.917-5.125c0,4.728,0,9.117,0,13.868c-2.947-1.414-6.714-2.899-9.886-4.334
	c-0.125,1.341-0.172,2.419-0.331,3.773c-3.722-1.877-7.2-3.631-11.624-5.863C27.43,24.623,30.896,22.683,34.777,20.51z"/>
</svg>
