<?xml version="1.0" encoding="utf-8"?>
<!-- Generator: Adobe Illustrator 16.0.0, SVG Export Plug-In . SVG Version: 6.00 Build 0)  -->
<!DOCTYPE svg PUBLIC "-//W3C//DTD SVG 1.1//EN" "http://www.w3.org/Graphics/SVG/1.1/DTD/svg11.dtd">
<svg version="1.1" id="Layer_1" xmlns="http://www.w3.org/2000/svg" xmlns:xlink="http://www.w3.org/1999/xlink" x="0px" y="0px"
	 width="50.467px" height="64.024px" viewBox="0 0 50.467 64.024" enable-background="new 0 0 50.467 64.024" xml:space="preserve">
<g id="kALRAg_1_">
	<g>
		<path d="M0.851,0c16.267,0,32.533,0,48.8,0c0.281,1.146,0.806,2.292,0.808,3.438c0.025,18.892-0.021,37.783-0.036,56.675
			c-0.002,2.723-1.031,3.94-4.023,3.911c-13.834-0.135-27.672-0.116-41.508-0.023C1.509,64.023-0.033,63.143,0,59.307
			C0.161,41.082,0.013,22.855,0.045,4.629C0.048,3.085,0.57,1.543,0.851,0z M20.678,26.758c5.051-2.616,9.045-4.685,14.165-7.335
			C30.134,21.8,33.6,20.316,28.8,22.65C28.8,27.655,25.334,24.333,20.678,26.758z"/>
	</g>
</g>
<linearGradient id="SVGID_1_" gradientUnits="userSpaceOnUse" x1="25.334" y1="3.062" x2="25.334" y2="4.9647">
	<stop  offset="0.0817" style="stop-color:#A4A4A4"/>
	<stop  offset="0.1067" style="stop-color:#969696"/>
	<stop  offset="0.1978" style="stop-color:#696969"/>
	<stop  offset="0.2892" style="stop-color:#434343"/>
	<stop  offset="0.3798" style="stop-color:#262626"/>
	<stop  offset="0.4691" style="stop-color:#111111"/>
	<stop  offset="0.5567" style="stop-color:#040404"/>
	<stop  offset="0.6406" style="stop-color:#000000"/>
</linearGradient>
<path fill-rule="evenodd" clip-rule="evenodd" fill="url(#SVGID_1_)" d="M50.467,3.987c0,0.552-0.26,1-0.58,1H0.78
	c-0.32,0-0.58-0.448-0.58-1l0,0c0-0.496,0-0.987,0-0.983l50.267-0.032C50.467,2.822,50.467,3.436,50.467,3.987L50.467,3.987z"/>
<linearGradient id="SVGID_2_" gradientUnits="userSpaceOnUse" x1="26.3232" y1="52.876" x2="26.3232" y2="55.552">
	<stop  offset="0" style="stop-color:#CCCCCC"/>
	<stop  offset="0.0935" style="stop-color:#969696"/>
	<stop  offset="0.1871" style="stop-color:#696969"/>
	<stop  offset="0.2808" style="stop-color:#434343"/>
	<stop  offset="0.3735" style="stop-color:#262626"/>
	<stop  offset="0.465" style="stop-color:#111111"/>
	<stop  offset="0.5547" style="stop-color:#040404"/>
	<stop  offset="0.6406" style="stop-color:#000000"/>
</linearGradient>
<path fill-rule="evenodd" clip-rule="evenodd" fill="url(#SVGID_2_)" d="M46.523,54.15c0,0.792-0.642,1.434-1.434,1.434H7.557
	c-0.792,0-1.434-0.642-1.434-1.434l0,0c0-0.792,0.642-1.434,1.434-1.434h37.533C45.881,52.717,46.523,53.359,46.523,54.15
	L46.523,54.15z"/>
<rect x="20.467" y="16.6" fill-rule="evenodd" clip-rule="evenodd" fill="#FCEE18" width="11.6" height="11.6"/>
</svg>
